# xmcd
#
# Track frame offsets:
#	150
#	6573
#	33087
#	51393
#	70713
#	93997
#	114627
#	139644
#	156715
#	183377
#
# Disc length: 2695 seconds
#
# Revision: 1
# Processed by: cddbd v1.5.1PL2 Copyright (c) Steve Scherf et al.
# Submitted via: EasyCDDAExtractor 9.0.0.1
#
DISCID=890a850a
DTITLE=Saxon - Z 7 Prattlen 19-05-97 Disc 1
DYEAR=1997
DGENRE=Hard Rock
TTITLE0=Gothic Dreams (Intro)
TTITLE1=Unleash The Beast
TTITLE2=Solid Ball Of Rock
TTITLE3=20 000 Feet
TTITLE4=Cut Out The Disease
TTITLE5=Dogs Of War
TTITLE6=Requiem (We Will Remember)
TTITLE7=Motorcycle Man
TTITLE8=Dallas 1 PM
TTITLE9=Terminal Velocity
EXTD=
EXTT0=
EXTT1=
EXTT2=
EXTT3=
EXTT4=
EXTT5=
EXTT6=
EXTT7=
EXTT8=
EXTT9=
PLAYORDER=
